{"title":"Narcos S01 1080p BluRay HEVC DD5.1 x265","uid":15624978,"size":8400285697,"categoryP":"video","categoryS":"hd___tv_shows","magnet":"?xt=urn:btih:1f4732039bd4c6f7d848fe374c84fbcdb32542d4&amp;dn=Narcos+S01+1080p+BluRay+HEVC+DD5.1+x265&amp;tr=udp%3A%2F%2Ftracker.leechers-paradise.org%3A6969&amp;tr=udp%3A%2F%2Fzer0day.ch%3A1337&amp;tr=udp%3A%2F%2Fopen.demonii.com%3A1337&amp;tr=udp%3A%2F%2Ftracker.coppersurfer.tk%3A6969&amp;tr=udp%3A%2F%2Fexodus.desync.com%3A6969","seeders":7,"leechers":9,"uploader":"nayhtut","files":10,"time":1471903893,"description":"[Screenshots]\r\n \nhttps://s13.postimg.org/xsnvg0v53/Narcos_S01_E09_1080p_Blu_Ray_HEVC_DD5_1_x265_005.jpg \nhttps://s13.postimg.org/un39ptciv/Narcos_S01_E06_1080p_Blu_Ray_HEVC_DD5_1_x265_005.jpg \nhttps://s13.postimg.org/imhtp3547/Narcos_S01_E07_1080p_Blu_Ray_HEVC_DD5_1_x265_001.jpg \nhttps://s13.postimg.org/5jm75tew7/Narcos_S01_E05_1080p_Blu_Ray_HEVC_DD5_1_x265_007.jpg \nhttps://s13.postimg.org/827w6i0mf/Narcos_S01_E04_1080p_Blu_Ray_HEVC_DD5_1_x265_005.jpg \nhttps://s13.postimg.org/6bov50j3b/Narcos_S01_E03_1080p_Blu_Ray_HEVC_DD5_1_x265_007.jpg \nhttps://s13.postimg.org/48efxcjaf/Narcos_S01_E02_1080p_Blu_Ray_HEVC_DD5_1_x265_001.jpg \nhttps://s13.postimg.org/bps8qay7b/Narcos_S01_E01_1080p_Blu_Ray_HEVC_DD5_1_x265_004.jpg\r\n\r\n\r\nSource:  Narcos S01 1080p BluRay x264-ROVERS  (Size: 37.45 GB)\r\n\r\nContains:  Narcos Season One - Episode 01 to 10\r\n\r\n\r\nFormat                                   : Matroska\r\nFormat version                           : Version 4 / Version 2\r\nFile size                                : 7.82 GiB\r\nDuration                                 : Various\r\nOverall bit rate                         : 2 275 Kbps\r\nWriting application                      : Lavf57.25.100\r\nWriting library                          : Lavf57.25.100\r\n\r\nVideo\r\n\r\nID                                       : 1\r\nFormat                                   : V_MPEGH/ISO/HEVC\r\nCodec ID                                 : V_MPEGH/ISO/HEVC\r\nDuration                                 : 57mn 0s\r\nBit rate                                 : 1 846 Kbps\r\nWidth                                    : 1 920 pixels\r\nHeight                                   : 1 080 pixels\r\nDisplay aspect ratio                     : 16:9\r\nFrame rate                               : 25.000 fps\r\nBits/(Pixel*Frame)                       : 0.036\r\nStream size                              : 753 MiB (81%)\r\nWriting library                          : Lavc57.48.101 libx265\r\nLanguage                                 : English\r\nDefault                                  : Yes\r\nForced                                   : No\r\nDURATION                                 : 00:57:00.411000000\r\nNUMBER_OF_FRAMES                         : 82007\r\nNUMBER_OF_BYTES                          : 4045599253\r\n_STATISTICS_WRITING_APP                  : mkvmerge v8.3.0 ('Over the Horizon') 64bit\r\n_STATISTICS_WRITING_DATE_UTC             : 2016-08-16 07:35:20\r\n_STATISTICS_TAGS                         : BPS DURATION NUMBER_OF_FRAMES NUMBER_OF_BYTES\r\n\r\nAudio\r\n\r\nID                                       : 2\r\nFormat                                   : AC-3\r\nFormat/Info                              : Audio Coding 3\r\nMode extension                           : CM (complete main)\r\nFormat settings, Endianness              : Big\r\nCodec ID                                 : A_AC3\r\nDuration                                 : 57mn 0s\r\nBit rate mode                            : Constant\r\nBit rate                                 : 384 Kbps\r\nChannel(s)                               : 6 channels\r\nChannel positions                        : Front: L C R, Side: L R, LFE\r\nSampling rate                            : 48.0 KHz\r\nBit depth                                : 16 bits\r\nCompression mode                         : Lossy\r\nStream size                              : 157 MiB (17%)\r\nWriting library                          : Lavc57.24.102 ac3\r\nLanguage                                 : English\r\nDefault                                  : Yes\r\nForced                                   : No\r\nDURATION                                 : 00:57:00.543000000\r\nNUMBER_OF_FRAMES                         : 320669\r\nNUMBER_OF_BYTES                          : 645186028\r\n_STATISTICS_WRITING_APP                  : mkvmerge v8.3.0 ('Over the Horizon') 64bit\r\n_STATISTICS_WRITING_DATE_UTC             : 2016-08-16 07:35:20\r\n_STATISTICS_TAGS                         : BPS DURATION NUMBER_OF_FRAMES NUMBER_OF_BYTES\r\n\r\nText\r\n\r\nID                                       : 3\r\nFormat                                   : ASS\r\nCodec ID                                 : S_TEXT/ASS\r\nCodec ID/Info                            : Advanced Sub Station Alpha\r\nCompression mode                         : Lossless\r\nTitle                                    : Forced\r\nWriting library                          : Lavc57.48.101 ssa\r\nLanguage                                 : English\r\nDefault                                  : Yes\r\nForced                                   : Yes\r\nDURATION                                 : 00:55:59.450000000\r\nNUMBER_OF_FRAMES                         : 415\r\nNUMBER_OF_BYTES                          : 13803\r\n_STATISTICS_WRITING_APP                  : mkvmerge v8.3.0 ('Over the Horizon') 64bit\r\n_STATISTICS_WRITING_DATE_UTC             : 2016-08-16 07:35:20\r\n_STATISTICS_TAGS                         : BPS DURATION NUMBER_OF_FRAMES NUMBER_OF_BYTES\r\n\r\nMenu\r\n\r\n00:00:00.000                             : :00:00:00.000\r\n00:07:19.105                             : :00:07:19.105\r\n00:19:14.528                             : :00:19:14.528\r\n00:28:02.514                             : :00:28:02.514\r\n00:38:42.820                             : :00:38:42.820\r\n00:48:54.723                             : :00:48:54.723\r\n00:53:34.586                             : :00:53:34.586\r\n\r\n__--__--__--__--__--__--__--__--__--__--__--__--__--\r\n\r\n\r\nIMDb: http://www.imdb.com/title/tt2707408\r\n\r\n\r\n__--__--__--__--__--__--__--__--__--__--__--__--__--\r\n\r\n\r\nAfter adding torrent with magnet link,\r\n\r\nplease add this  following trackers list to the torrent for better seeds.\r\n\r\n\r\nudp://tracker.coppersurfer.tk:6969/announce\r\n\r\nudp://tracker.opentrackr.org:1337/announce\r\n \nhttp://tracker.baravik.org:6970/announce\r\n \nhttp://tracker2.wasabii.com.tw:6969/announce\r\n\r\nudp://9.rarbg.me:2710/announce\r\n\r\n\r\n__--__--__--__--__--__--__--__--__--__--__--__--__--\r\n\r\nEnjoy!","torrent":{"xt":"urn:btih:1f4732039bd4c6f7d848fe374c84fbcdb32542d4","amp;dn":"Narcos+S01+1080p+BluRay+HEVC+DD5.1+x265","amp;tr":["udp%3A%2F%2Ftracker.leechers-paradise.org%3A6969","udp%3A%2F%2Fzer0day.ch%3A1337","udp%3A%2F%2Fopen.demonii.com%3A1337","udp%3A%2F%2Ftracker.coppersurfer.tk%3A6969","udp%3A%2F%2Fexodus.desync.com%3A6969"],"infoHash":"1f4732039bd4c6f7d848fe374c84fbcdb32542d4","infoHashBuffer":{"type":"Buffer","data":[31,71,50,3,155,212,198,247,216,72,254,55,76,132,251,205,179,37,66,212]},"announce":[],"urlList":[]}}